<svg width="1015" height="104" viewBox="0 0 1015 104" fill="none" xmlns="http://www.w3.org/2000/svg">
<path fill-rule="evenodd" clip-rule="evenodd" d="M1015 0L972.333 13.4815C929.667 26.963 844.333 53.9259 759 55.8519C673.667 57.7778 588.333 34.6667 503 23.1111C417.667 11.5556 332.333 11.5556 247 15.4074C161.667 19.2593 76.3333 26.963 33.6666 30.8148L-9 34.6667V104H33.6666C76.3333 104 161.667 104 247 104C332.333 104 417.667 104 503 104C588.333 104 673.667 104 759 104C844.333 104 929.667 104 972.333 104H1015V0Z" fill="#3F3D56"/>
</svg>
